<svg xmlns="http://www.w3.org/2000/svg" xmlns:xlink="http://www.w3.org/1999/xlink" width="1587" zoomAndPan="magnify" viewBox="0 0 1190.25 906.749977" height="1209" preserveAspectRatio="xMidYMid meet" version="1.0"><defs><clipPath id="27cece2149"><path d="M 223.988281 257.714844 L 1003 257.714844 L 1003 638.585938 L 223.988281 638.585938 Z M 223.988281 257.714844 " clip-rule="nonzero"/></clipPath><clipPath id="690833f6de"><path d="M 298.941406 257.714844 L 927.160156 257.714844 C 968.554688 257.714844 1002.113281 291.269531 1002.113281 332.667969 L 1002.113281 563.632812 C 1002.113281 605.027344 968.554688 638.585938 927.160156 638.585938 L 298.941406 638.585938 C 257.542969 638.585938 223.988281 605.027344 223.988281 563.632812 L 223.988281 332.667969 C 223.988281 291.269531 257.542969 257.714844 298.941406 257.714844 Z M 298.941406 257.714844 " clip-rule="nonzero"/></clipPath><clipPath id="e2ead079cf"><path d="M 306.75 40.292969 L 889 40.292969 L 889 346.957031 L 306.75 346.957031 Z M 306.75 40.292969 " clip-rule="nonzero"/></clipPath><clipPath id="97234aade1"><path d="M 381.703125 40.292969 L 814.488281 40.292969 C 855.882812 40.292969 889.4375 73.851562 889.4375 115.246094 L 889.4375 272.003906 C 889.4375 313.398438 855.882812 346.957031 814.488281 346.957031 L 381.703125 346.957031 C 340.308594 346.957031 306.75 313.398438 306.75 272.003906 L 306.75 115.246094 C 306.75 73.851562 340.308594 40.292969 381.703125 40.292969 Z M 381.703125 40.292969 " clip-rule="nonzero"/></clipPath><clipPath id="88910eb940"><path d="M 953.5 77 L 998 77 L 998 133 L 953.5 133 Z M 953.5 77 " clip-rule="nonzero"/></clipPath><clipPath id="3e2131f9d4"><path d="M 52.226562 654 L 97 654 L 97 710 L 52.226562 710 Z M 52.226562 654 " clip-rule="nonzero"/></clipPath><clipPath id="dc030f9652"><path d="M 0 0.160156 L 954 0.160156 L 954 726 L 0 726 Z M 0 0.160156 " clip-rule="nonzero"/></clipPath><clipPath id="0914ff6926"><path d="M 246 0.160156 L 1189.5 0.160156 L 1189.5 740 L 246 740 Z M 246 0.160156 " clip-rule="nonzero"/></clipPath><clipPath id="c5a5d1f5c5"><path d="M 0 0.160156 L 954 0.160156 L 954 883 L 0 883 Z M 0 0.160156 " clip-rule="nonzero"/></clipPath><clipPath id="7f1476d58c"><path d="M 246 0.160156 L 1189.5 0.160156 L 1189.5 896 L 246 896 Z M 246 0.160156 " clip-rule="nonzero"/></clipPath><clipPath id="365957eca5"><path d="M 0 26 L 954 26 L 954 906.339844 L 0 906.339844 Z M 0 26 " clip-rule="nonzero"/></clipPath><clipPath id="e44c3883aa"><path d="M 246 25 L 1189.5 25 L 1189.5 906.339844 L 246 906.339844 Z M 246 25 " clip-rule="nonzero"/></clipPath></defs><path fill="#ffffff" d="M 452.558594 382.507812 L 425.898438 382.507812 L 425.898438 355.851562 C 425.898438 354.476562 425.828125 353.109375 425.695312 351.746094 C 425.558594 350.382812 425.355469 349.027344 425.089844 347.683594 C 424.820312 346.335938 424.484375 345.007812 424.085938 343.699219 C 423.6875 342.386719 423.226562 341.097656 422.703125 339.828125 C 422.175781 338.5625 421.589844 337.324219 420.941406 336.117188 C 420.296875 334.90625 419.59375 333.734375 418.832031 332.59375 C 418.066406 331.453125 417.253906 330.351562 416.382812 329.292969 C 415.511719 328.234375 414.59375 327.21875 413.625 326.25 C 412.652344 325.277344 411.640625 324.359375 410.578125 323.488281 C 409.519531 322.617188 408.417969 321.800781 407.28125 321.039062 C 406.140625 320.277344 404.964844 319.574219 403.757812 318.925781 C 402.546875 318.277344 401.308594 317.691406 400.042969 317.167969 C 398.777344 316.640625 397.488281 316.179688 396.175781 315.78125 C 394.863281 315.382812 393.535156 315.046875 392.191406 314.777344 C 390.847656 314.507812 389.492188 314.308594 388.128906 314.171875 C 386.761719 314.035156 385.394531 313.964844 384.023438 313.964844 L 338.328125 313.964844 C 336.957031 313.964844 335.589844 314.035156 334.226562 314.171875 C 332.859375 314.308594 331.507812 314.507812 330.160156 314.777344 C 328.816406 315.046875 327.488281 315.382812 326.175781 315.78125 C 324.863281 316.179688 323.574219 316.640625 322.308594 317.167969 C 321.042969 317.691406 319.804688 318.277344 318.597656 318.925781 C 317.386719 319.574219 316.214844 320.277344 315.074219 321.039062 C 313.933594 321.800781 312.832031 322.617188 311.773438 323.488281 C 310.714844 324.359375 309.699219 325.277344 308.730469 326.246094 C 307.761719 327.21875 306.839844 328.234375 305.972656 329.292969 C 305.101562 330.351562 304.285156 331.453125 303.523438 332.59375 C 302.761719 333.730469 302.058594 334.90625 301.410156 336.117188 C 300.761719 337.324219 300.175781 338.5625 299.652344 339.828125 C 299.125 341.097656 298.664062 342.386719 298.265625 343.699219 C 297.867188 345.007812 297.535156 346.335938 297.265625 347.683594 C 296.996094 349.027344 296.792969 350.382812 296.660156 351.746094 C 296.523438 353.109375 296.453125 354.476562 296.453125 355.851562 L 296.453125 382.507812 L 269.792969 382.507812 C 268.421875 382.511719 267.054688 382.578125 265.691406 382.714844 C 264.328125 382.851562 262.972656 383.050781 261.628906 383.320312 C 260.285156 383.589844 258.957031 383.921875 257.644531 384.324219 C 256.332031 384.722656 255.042969 385.183594 253.777344 385.707031 C 252.511719 386.234375 251.273438 386.820312 250.066406 387.46875 C 248.855469 388.113281 247.679688 388.820312 246.542969 389.582031 C 245.402344 390.34375 244.300781 391.160156 243.242188 392.027344 C 242.183594 392.898438 241.167969 393.816406 240.199219 394.789062 C 239.230469 395.757812 238.308594 396.773438 237.441406 397.832031 C 236.570312 398.890625 235.753906 399.992188 234.992188 401.128906 C 234.230469 402.269531 233.523438 403.445312 232.878906 404.652344 C 232.230469 405.863281 231.644531 407.101562 231.121094 408.367188 C 230.59375 409.632812 230.132812 410.921875 229.734375 412.234375 C 229.335938 413.546875 229 414.875 228.730469 416.21875 C 228.464844 417.5625 228.261719 418.917969 228.125 420.28125 C 227.988281 421.644531 227.921875 423.011719 227.917969 424.382812 L 227.917969 470.078125 C 227.921875 471.449219 227.988281 472.816406 228.125 474.183594 C 228.261719 475.546875 228.464844 476.902344 228.734375 478.246094 C 229 479.589844 229.335938 480.917969 229.734375 482.230469 C 230.132812 483.542969 230.59375 484.832031 231.121094 486.097656 C 231.644531 487.363281 232.230469 488.601562 232.878906 489.808594 C 233.527344 491.019531 234.230469 492.191406 234.992188 493.332031 C 235.753906 494.472656 236.570312 495.570312 237.441406 496.632812 C 238.308594 497.691406 239.230469 498.707031 240.199219 499.675781 C 241.167969 500.644531 242.183594 501.5625 243.242188 502.433594 C 244.300781 503.304688 245.402344 504.121094 246.542969 504.882812 C 247.679688 505.644531 248.855469 506.347656 250.066406 506.996094 C 251.273438 507.640625 252.511719 508.226562 253.777344 508.753906 C 255.042969 509.277344 256.332031 509.742188 257.644531 510.140625 C 258.957031 510.539062 260.285156 510.871094 261.628906 511.140625 C 262.972656 511.410156 264.328125 511.613281 265.691406 511.75 C 267.054688 511.882812 268.421875 511.953125 269.792969 511.953125 L 296.453125 511.953125 L 296.453125 538.613281 C 296.457031 539.984375 296.523438 541.351562 296.660156 542.714844 C 296.796875 544.082031 296.996094 545.433594 297.265625 546.777344 C 297.535156 548.125 297.867188 549.453125 298.269531 550.761719 C 298.667969 552.074219 299.128906 553.363281 299.652344 554.628906 C 300.179688 555.894531 300.765625 557.132812 301.414062 558.34375 C 302.058594 559.550781 302.765625 560.726562 303.527344 561.867188 C 304.289062 563.003906 305.105469 564.105469 305.972656 565.164062 C 306.84375 566.226562 307.761719 567.238281 308.734375 568.207031 C 309.703125 569.179688 310.71875 570.097656 311.777344 570.96875 C 312.835938 571.835938 313.9375 572.652344 315.074219 573.414062 C 316.214844 574.175781 317.390625 574.882812 318.597656 575.527344 C 319.808594 576.175781 321.046875 576.761719 322.3125 577.289062 C 323.578125 577.8125 324.867188 578.273438 326.179688 578.671875 C 327.492188 579.074219 328.816406 579.40625 330.164062 579.675781 C 331.507812 579.945312 332.863281 580.144531 334.226562 580.28125 C 335.589844 580.417969 336.957031 580.484375 338.328125 580.488281 L 384.023438 580.488281 C 385.394531 580.484375 386.761719 580.417969 388.128906 580.28125 C 389.492188 580.144531 390.847656 579.945312 392.191406 579.675781 C 393.535156 579.40625 394.863281 579.074219 396.175781 578.671875 C 397.488281 578.273438 398.777344 577.8125 400.042969 577.289062 C 401.308594 576.761719 402.546875 576.175781 403.753906 575.527344 C 404.964844 574.882812 406.136719 574.175781 407.277344 573.414062 C 408.417969 572.652344 409.515625 571.835938 410.578125 570.96875 C 411.636719 570.097656 412.652344 569.179688 413.621094 568.207031 C 414.589844 567.238281 415.507812 566.222656 416.378906 565.164062 C 417.25 564.105469 418.066406 563.003906 418.828125 561.867188 C 419.589844 560.726562 420.292969 559.550781 420.941406 558.34375 C 421.585938 557.132812 422.171875 555.894531 422.699219 554.628906 C 423.222656 553.363281 423.6875 552.074219 424.085938 550.761719 C 424.484375 549.449219 424.820312 548.121094 425.085938 546.777344 C 425.355469 545.433594 425.558594 544.078125 425.695312 542.714844 C 425.828125 541.351562 425.898438 539.984375 425.898438 538.613281 L 425.898438 511.953125 L 452.558594 511.953125 C 453.929688 511.953125 455.296875 511.882812 456.664062 511.75 C 458.027344 511.613281 459.382812 511.410156 460.726562 511.140625 C 462.070312 510.871094 463.398438 510.539062 464.710938 510.140625 C 466.019531 509.742188 467.308594 509.277344 468.578125 508.753906 C 469.84375 508.226562 471.082031 507.640625 472.289062 506.996094 C 473.5 506.347656 474.671875 505.644531 475.8125 504.882812 C 476.953125 504.121094 478.050781 503.304688 479.113281 502.433594 C 480.171875 501.5625 481.1875 500.644531 482.15625 499.675781 C 483.125 498.707031 484.042969 497.691406 484.914062 496.632812 C 485.785156 495.570312 486.601562 494.472656 487.363281 493.332031 C 488.125 492.191406 488.828125 491.019531 489.476562 489.808594 C 490.121094 488.601562 490.707031 487.363281 491.234375 486.097656 C 491.757812 484.832031 492.222656 483.542969 492.621094 482.230469 C 493.019531 480.917969 493.351562 479.589844 493.621094 478.246094 C 493.890625 476.902344 494.09375 475.546875 494.226562 474.183594 C 494.363281 472.816406 494.433594 471.449219 494.433594 470.078125 L 494.433594 424.382812 C 494.433594 423.011719 494.363281 421.644531 494.226562 420.28125 C 494.09375 418.917969 493.890625 417.5625 493.621094 416.21875 C 493.351562 414.875 493.019531 413.546875 492.621094 412.234375 C 492.222656 410.921875 491.757812 409.632812 491.234375 408.367188 C 490.707031 407.101562 490.121094 405.863281 489.476562 404.652344 C 488.828125 403.445312 488.125 402.269531 487.363281 401.128906 C 486.601562 399.992188 485.785156 398.890625 484.914062 397.832031 C 484.042969 396.773438 483.125 395.757812 482.15625 394.789062 C 481.1875 393.816406 480.171875 392.898438 479.113281 392.027344 C 478.050781 391.160156 476.953125 390.34375 475.8125 389.582031 C 474.671875 388.820312 473.5 388.113281 472.289062 387.46875 C 471.082031 386.820312 469.84375 386.234375 468.578125 385.707031 C 467.308594 385.183594 466.019531 384.722656 464.710938 384.324219 C 463.398438 383.921875 462.070312 383.589844 460.726562 383.320312 C 459.382812 383.050781 458.027344 382.851562 456.664062 382.714844 C 455.296875 382.578125 453.929688 382.511719 452.558594 382.507812 Z M 456.359375 470.078125 C 456.359375 470.582031 456.265625 471.070312 456.070312 471.535156 C 455.878906 472 455.605469 472.410156 455.246094 472.769531 C 454.890625 473.125 454.480469 473.398438 454.015625 473.59375 C 453.546875 473.785156 453.0625 473.882812 452.558594 473.878906 L 406.863281 473.878906 C 406.238281 473.878906 405.617188 473.910156 404.996094 473.972656 C 404.375 474.035156 403.761719 474.125 403.148438 474.246094 C 402.539062 474.367188 401.933594 474.519531 401.335938 474.699219 C 400.742188 474.882812 400.152344 475.089844 399.578125 475.332031 C 399.003906 475.570312 398.4375 475.835938 397.890625 476.128906 C 397.339844 476.421875 396.804688 476.742188 396.285156 477.089844 C 395.769531 477.4375 395.269531 477.808594 394.785156 478.203125 C 394.304688 478.597656 393.84375 479.015625 393.402344 479.457031 C 392.960938 479.898438 392.542969 480.359375 392.148438 480.839844 C 391.753906 481.324219 391.382812 481.824219 391.035156 482.339844 C 390.6875 482.859375 390.367188 483.394531 390.074219 483.945312 C 389.78125 484.492188 389.515625 485.054688 389.277344 485.632812 C 389.035156 486.207031 388.828125 486.792969 388.644531 487.390625 C 388.464844 487.988281 388.3125 488.59375 388.191406 489.203125 C 388.070312 489.816406 387.980469 490.429688 387.917969 491.050781 C 387.855469 491.671875 387.828125 492.292969 387.828125 492.917969 L 387.828125 538.613281 C 387.828125 539.117188 387.730469 539.601562 387.539062 540.066406 C 387.34375 540.535156 387.070312 540.945312 386.714844 541.300781 C 386.355469 541.65625 385.945312 541.933594 385.480469 542.125 C 385.011719 542.320312 384.527344 542.414062 384.023438 542.414062 L 338.328125 542.414062 C 337.824219 542.414062 337.339844 542.320312 336.875 542.125 C 336.40625 541.933594 335.996094 541.65625 335.640625 541.300781 C 335.285156 540.945312 335.007812 540.535156 334.816406 540.066406 C 334.625 539.601562 334.527344 539.117188 334.527344 538.613281 L 334.527344 492.917969 C 334.527344 492.292969 334.496094 491.671875 334.433594 491.050781 C 334.375 490.429688 334.28125 489.816406 334.160156 489.203125 C 334.039062 488.59375 333.886719 487.988281 333.707031 487.390625 C 333.527344 486.796875 333.316406 486.207031 333.078125 485.632812 C 332.839844 485.058594 332.574219 484.492188 332.277344 483.945312 C 331.984375 483.394531 331.664062 482.859375 331.320312 482.339844 C 330.972656 481.824219 330.601562 481.324219 330.207031 480.839844 C 329.808594 480.359375 329.390625 479.898438 328.949219 479.457031 C 328.511719 479.015625 328.050781 478.597656 327.566406 478.203125 C 327.085938 477.808594 326.585938 477.4375 326.066406 477.089844 C 325.546875 476.742188 325.015625 476.421875 324.464844 476.128906 C 323.914062 475.835938 323.351562 475.570312 322.773438 475.332031 C 322.199219 475.089844 321.613281 474.882812 321.015625 474.699219 C 320.417969 474.519531 319.816406 474.367188 319.203125 474.246094 C 318.59375 474.125 317.976562 474.035156 317.355469 473.972656 C 316.734375 473.910156 316.113281 473.878906 315.492188 473.878906 L 269.792969 473.878906 C 269.289062 473.882812 268.804688 473.785156 268.339844 473.59375 C 267.875 473.398438 267.460938 473.125 267.105469 472.769531 C 266.75 472.410156 266.476562 472 266.28125 471.535156 C 266.089844 471.070312 265.992188 470.582031 265.992188 470.078125 L 265.992188 424.382812 C 265.992188 423.878906 266.089844 423.394531 266.28125 422.929688 C 266.476562 422.460938 266.75 422.050781 267.105469 421.695312 C 267.460938 421.339844 267.875 421.0625 268.339844 420.871094 C 268.804688 420.679688 269.289062 420.582031 269.792969 420.582031 L 315.492188 420.582031 C 316.113281 420.582031 316.734375 420.550781 317.355469 420.488281 C 317.976562 420.429688 318.59375 420.335938 319.203125 420.214844 C 319.816406 420.09375 320.417969 419.941406 321.015625 419.761719 C 321.613281 419.582031 322.199219 419.371094 322.773438 419.132812 C 323.351562 418.894531 323.914062 418.628906 324.464844 418.332031 C 325.015625 418.039062 325.546875 417.71875 326.066406 417.375 C 326.585938 417.027344 327.085938 416.65625 327.566406 416.261719 C 328.050781 415.863281 328.511719 415.445312 328.953125 415.007812 C 329.390625 414.566406 329.808594 414.105469 330.207031 413.621094 C 330.601562 413.140625 330.972656 412.640625 331.320312 412.121094 C 331.664062 411.601562 331.984375 411.070312 332.277344 410.519531 C 332.574219 409.96875 332.839844 409.40625 333.078125 408.832031 C 333.316406 408.253906 333.527344 407.667969 333.707031 407.070312 C 333.886719 406.472656 334.039062 405.871094 334.160156 405.257812 C 334.28125 404.648438 334.375 404.03125 334.433594 403.410156 C 334.496094 402.789062 334.527344 402.167969 334.527344 401.546875 L 334.527344 355.851562 C 334.527344 355.34375 334.621094 354.859375 334.816406 354.394531 C 335.007812 353.925781 335.28125 353.515625 335.640625 353.15625 C 335.996094 352.800781 336.40625 352.523438 336.871094 352.332031 C 337.339844 352.136719 337.824219 352.039062 338.328125 352.039062 L 384.023438 352.039062 C 384.527344 352.039062 385.015625 352.136719 385.480469 352.332031 C 385.945312 352.523438 386.359375 352.800781 386.714844 353.15625 C 387.070312 353.515625 387.34375 353.925781 387.539062 354.394531 C 387.730469 354.859375 387.828125 355.34375 387.828125 355.851562 L 387.828125 401.546875 C 387.828125 402.167969 387.855469 402.789062 387.917969 403.410156 C 387.980469 404.03125 388.070312 404.648438 388.191406 405.257812 C 388.3125 405.871094 388.464844 406.472656 388.644531 407.070312 C 388.828125 407.667969 389.035156 408.253906 389.273438 408.832031 C 389.515625 409.40625 389.78125 409.96875 390.074219 410.519531 C 390.367188 411.070312 390.6875 411.601562 391.035156 412.121094 C 391.378906 412.640625 391.75 413.140625 392.148438 413.621094 C 392.542969 414.105469 392.960938 414.566406 393.402344 415.007812 C 393.84375 415.445312 394.304688 415.863281 394.785156 416.261719 C 395.269531 416.65625 395.769531 417.027344 396.285156 417.375 C 396.804688 417.71875 397.339844 418.039062 397.890625 418.332031 C 398.4375 418.628906 399 418.894531 399.578125 419.132812 C 400.152344 419.371094 400.738281 419.582031 401.335938 419.761719 C 401.933594 419.941406 402.539062 420.09375 403.148438 420.214844 C 403.761719 420.335938 404.375 420.429688 404.996094 420.488281 C 405.617188 420.550781 406.238281 420.582031 406.863281 420.582031 L 452.558594 420.582031 C 453.0625 420.582031 453.546875 420.679688 454.015625 420.871094 C 454.480469 421.0625 454.890625 421.339844 455.246094 421.695312 C 455.605469 422.050781 455.878906 422.460938 456.070312 422.929688 C 456.265625 423.394531 456.359375 423.878906 456.359375 424.382812 Z M 456.359375 470.078125 " fill-opacity="1" fill-rule="nonzero"/><path fill="#ffffff" d="M 823.78125 493.679688 C 821.707031 493.65625 819.636719 493.734375 817.570312 493.910156 C 815.503906 494.089844 813.453125 494.367188 811.410156 494.746094 C 809.371094 495.125 807.355469 495.605469 805.363281 496.179688 C 803.371094 496.757812 801.410156 497.429688 799.484375 498.199219 C 797.558594 498.964844 795.671875 499.828125 793.828125 500.78125 C 791.988281 501.730469 790.195312 502.773438 788.453125 503.902344 C 786.714844 505.027344 785.03125 506.238281 783.410156 507.53125 C 781.785156 508.824219 780.230469 510.195312 778.742188 511.636719 C 777.253906 513.082031 775.839844 514.597656 774.5 516.179688 C 773.160156 517.765625 771.898438 519.410156 770.71875 521.117188 C 769.539062 522.820312 768.445312 524.582031 767.441406 526.394531 C 766.433594 528.207031 765.515625 530.066406 764.691406 531.96875 C 763.867188 533.875 763.136719 535.8125 762.5 537.789062 C 761.863281 539.761719 761.328125 541.761719 760.886719 543.789062 C 760.445312 545.816406 760.105469 547.863281 759.867188 549.921875 C 759.628906 551.984375 759.488281 554.050781 759.453125 556.125 C 759.414062 558.199219 759.476562 560.269531 759.644531 562.335938 C 759.808594 564.40625 760.074219 566.460938 760.441406 568.503906 C 760.808594 570.542969 761.273438 572.5625 761.835938 574.558594 C 762.398438 576.554688 763.058594 578.519531 763.816406 580.453125 C 764.570312 582.382812 765.421875 584.273438 766.363281 586.121094 C 767.304688 587.972656 768.332031 589.769531 769.449219 591.515625 C 770.566406 593.265625 771.765625 594.953125 773.046875 596.585938 C 774.332031 598.214844 775.691406 599.78125 777.125 601.277344 C 778.558594 602.773438 780.066406 604.199219 781.640625 605.550781 C 783.214844 606.898438 784.851562 608.171875 786.550781 609.359375 C 788.25 610.550781 790.003906 611.65625 791.8125 612.671875 C 793.617188 613.691406 795.46875 614.621094 797.367188 615.457031 C 799.265625 616.292969 801.199219 617.039062 803.171875 617.683594 C 805.140625 618.332031 807.140625 618.882812 809.164062 619.335938 C 811.1875 619.789062 813.230469 620.140625 815.289062 620.394531 C 817.347656 620.648438 819.414062 620.796875 821.488281 620.847656 C 905.101562 619.308594 908.296875 497.257812 823.78125 493.679688 Z M 822.238281 582.785156 C 821.410156 582.765625 820.585938 582.707031 819.761719 582.605469 C 818.9375 582.507812 818.121094 582.367188 817.3125 582.191406 C 816.5 582.011719 815.703125 581.792969 814.914062 581.535156 C 814.125 581.277344 813.351562 580.984375 812.589844 580.652344 C 811.832031 580.320312 811.089844 579.949219 810.367188 579.546875 C 809.640625 579.140625 808.941406 578.703125 808.257812 578.230469 C 807.578125 577.757812 806.921875 577.25 806.289062 576.714844 C 805.65625 576.175781 805.054688 575.609375 804.476562 575.015625 C 803.898438 574.417969 803.355469 573.796875 802.835938 573.144531 C 802.320312 572.496094 801.839844 571.824219 801.386719 571.128906 C 800.9375 570.429688 800.523438 569.714844 800.140625 568.976562 C 799.761719 568.238281 799.417969 567.488281 799.109375 566.714844 C 798.804688 565.945312 798.535156 565.164062 798.304688 564.367188 C 798.074219 563.570312 797.882812 562.761719 797.730469 561.949219 C 797.578125 561.132812 797.464844 560.3125 797.394531 559.484375 C 797.324219 558.660156 797.289062 557.832031 797.300781 557.003906 C 797.308594 556.171875 797.355469 555.347656 797.445312 554.523438 C 797.535156 553.695312 797.664062 552.878906 797.832031 552.066406 C 798.003906 551.253906 798.210938 550.453125 798.457031 549.660156 C 798.703125 548.871094 798.988281 548.09375 799.3125 547.328125 C 799.636719 546.566406 799.996094 545.816406 800.390625 545.089844 C 800.785156 544.359375 801.214844 543.652344 801.679688 542.964844 C 802.144531 542.277344 802.644531 541.617188 803.171875 540.976562 C 803.703125 540.339844 804.261719 539.726562 804.851562 539.144531 C 805.4375 538.558594 806.054688 538.007812 806.699219 537.480469 C 807.339844 536.957031 808.007812 536.46875 808.699219 536.007812 C 809.390625 535.550781 810.101562 535.125 810.832031 534.734375 C 811.566406 534.347656 812.3125 533.992188 813.082031 533.675781 C 813.847656 533.359375 814.628906 533.082031 815.421875 532.839844 C 816.214844 532.601562 817.019531 532.398438 817.832031 532.238281 C 818.644531 532.074219 819.464844 531.953125 820.289062 531.871094 C 821.113281 531.789062 821.941406 531.746094 822.769531 531.746094 C 823.601562 531.765625 824.425781 531.824219 825.25 531.921875 C 826.070312 532.023438 826.886719 532.164062 827.695312 532.34375 C 828.507812 532.523438 829.304688 532.742188 830.09375 532.996094 C 830.878906 533.253906 831.65625 533.550781 832.414062 533.882812 C 833.171875 534.214844 833.914062 534.585938 834.636719 534.988281 C 835.359375 535.394531 836.0625 535.832031 836.742188 536.304688 C 837.421875 536.78125 838.078125 537.285156 838.710938 537.820312 C 839.34375 538.359375 839.945312 538.925781 840.523438 539.523438 C 841.097656 540.117188 841.644531 540.742188 842.160156 541.390625 C 842.675781 542.039062 843.15625 542.710938 843.609375 543.40625 C 844.058594 544.105469 844.472656 544.820312 844.851562 545.558594 C 845.234375 546.292969 845.574219 547.046875 845.882812 547.816406 C 846.191406 548.585938 846.457031 549.371094 846.6875 550.167969 C 846.917969 550.964844 847.109375 551.769531 847.261719 552.582031 C 847.414062 553.398438 847.527344 554.21875 847.597656 555.042969 C 847.667969 555.871094 847.703125 556.699219 847.691406 557.527344 C 847.683594 558.355469 847.636719 559.183594 847.546875 560.007812 C 847.457031 560.832031 847.328125 561.648438 847.160156 562.460938 C 846.992188 563.269531 846.78125 564.074219 846.535156 564.863281 C 846.289062 565.65625 846.003906 566.433594 845.679688 567.195312 C 845.359375 567.960938 845 568.707031 844.605469 569.433594 C 844.207031 570.164062 843.777344 570.871094 843.316406 571.558594 C 842.851562 572.242188 842.355469 572.90625 841.824219 573.542969 C 841.296875 574.183594 840.738281 574.792969 840.148438 575.378906 C 839.5625 575.960938 838.945312 576.515625 838.304688 577.039062 C 837.660156 577.5625 836.996094 578.054688 836.304688 578.515625 C 835.613281 578.972656 834.902344 579.398438 834.171875 579.789062 C 833.441406 580.175781 832.691406 580.53125 831.925781 580.847656 C 831.160156 581.164062 830.378906 581.441406 829.585938 581.683594 C 828.792969 581.925781 827.988281 582.125 827.175781 582.289062 C 826.363281 582.449219 825.546875 582.574219 824.722656 582.65625 C 823.894531 582.738281 823.070312 582.78125 822.238281 582.785156 Z M 822.238281 582.785156 " fill-opacity="1" fill-rule="nonzero"/><path fill="#ffffff" d="M 713.949219 383.449219 C 629.691406 384.164062 628.234375 509.050781 712.640625 510.242188 C 714.699219 510.234375 716.75 510.125 718.796875 509.917969 C 720.84375 509.710938 722.875 509.402344 724.894531 508.996094 C 726.910156 508.589844 728.902344 508.085938 730.871094 507.484375 C 732.835938 506.882812 734.769531 506.191406 736.671875 505.402344 C 738.570312 504.613281 740.429688 503.734375 742.242188 502.765625 C 744.058594 501.796875 745.820312 500.738281 747.535156 499.597656 C 749.246094 498.457031 750.898438 497.238281 752.492188 495.933594 C 754.082031 494.632812 755.609375 493.257812 757.070312 491.808594 C 758.527344 490.355469 759.914062 488.839844 761.222656 487.253906 C 762.535156 485.667969 763.765625 484.023438 764.917969 482.316406 C 766.070312 480.613281 767.136719 478.855469 768.117188 477.046875 C 769.09375 475.238281 769.984375 473.386719 770.785156 471.492188 C 771.585938 469.59375 772.292969 467.664062 772.902344 465.703125 C 773.515625 463.738281 774.03125 461.75 774.449219 459.734375 C 774.867188 457.71875 775.1875 455.691406 775.410156 453.644531 C 775.628906 451.597656 775.75 449.546875 775.773438 447.492188 C 775.792969 445.433594 775.714844 443.378906 775.535156 441.332031 C 775.355469 439.28125 775.078125 437.246094 774.703125 435.222656 C 774.324219 433.199219 773.851562 431.199219 773.28125 429.222656 C 772.707031 427.246094 772.042969 425.304688 771.28125 423.390625 C 770.519531 421.480469 769.667969 419.609375 768.726562 417.78125 C 767.785156 415.953125 766.753906 414.175781 765.640625 412.445312 C 764.523438 410.71875 763.328125 409.046875 762.046875 407.4375 C 760.769531 405.824219 759.417969 404.277344 757.988281 402.796875 C 756.558594 401.316406 755.0625 399.910156 753.496094 398.574219 C 751.929688 397.242188 750.304688 395.984375 748.613281 394.808594 C 746.925781 393.632812 745.1875 392.542969 743.390625 391.535156 C 741.597656 390.53125 739.757812 389.613281 737.875 388.785156 C 735.992188 387.957031 734.074219 387.222656 732.117188 386.582031 C 730.164062 385.941406 728.179688 385.398438 726.171875 384.949219 C 724.164062 384.5 722.140625 384.152344 720.097656 383.902344 C 718.054688 383.648438 716.007812 383.5 713.949219 383.449219 Z M 712.074219 472.160156 C 711.253906 472.121094 710.441406 472.046875 709.632812 471.929688 C 708.820312 471.8125 708.019531 471.65625 707.222656 471.460938 C 706.429688 471.265625 705.644531 471.03125 704.875 470.761719 C 704.101562 470.492188 703.34375 470.183594 702.601562 469.839844 C 701.859375 469.496094 701.132812 469.117188 700.429688 468.703125 C 699.722656 468.289062 699.039062 467.839844 698.375 467.359375 C 697.714844 466.878906 697.078125 466.367188 696.464844 465.824219 C 695.851562 465.28125 695.265625 464.710938 694.707031 464.113281 C 694.152344 463.511719 693.625 462.886719 693.125 462.238281 C 692.628906 461.585938 692.164062 460.914062 691.734375 460.21875 C 691.300781 459.523438 690.90625 458.808594 690.542969 458.074219 C 690.179688 457.34375 689.851562 456.59375 689.5625 455.828125 C 689.273438 455.0625 689.019531 454.285156 688.808594 453.496094 C 688.59375 452.703125 688.417969 451.90625 688.28125 451.097656 C 688.140625 450.292969 688.042969 449.480469 687.984375 448.664062 C 687.929688 447.847656 687.910156 447.03125 687.929688 446.210938 C 687.949219 445.394531 688.011719 444.578125 688.109375 443.765625 C 688.210938 442.953125 688.347656 442.148438 688.527344 441.351562 C 688.703125 440.550781 688.921875 439.761719 689.175781 438.984375 C 689.429688 438.207031 689.71875 437.441406 690.046875 436.695312 C 690.378906 435.945312 690.742188 435.210938 691.140625 434.496094 C 691.539062 433.78125 691.972656 433.089844 692.4375 432.417969 C 692.90625 431.746094 693.402344 431.097656 693.933594 430.472656 C 694.460938 429.847656 695.019531 429.25 695.605469 428.679688 C 696.195312 428.109375 696.808594 427.570312 697.445312 427.058594 C 698.085938 426.546875 698.75 426.070312 699.433594 425.621094 C 700.121094 425.175781 700.828125 424.765625 701.550781 424.386719 C 702.277344 424.007812 703.019531 423.664062 703.78125 423.359375 C 704.539062 423.054688 705.3125 422.785156 706.097656 422.554688 C 706.878906 422.320312 707.675781 422.128906 708.480469 421.976562 C 709.28125 421.820312 710.09375 421.707031 710.90625 421.628906 C 711.722656 421.554688 712.539062 421.519531 713.355469 421.519531 C 714.199219 421.523438 715.035156 421.570312 715.875 421.65625 C 716.710938 421.742188 717.539062 421.871094 718.363281 422.039062 C 719.1875 422.210938 720 422.421875 720.804688 422.671875 C 721.605469 422.921875 722.394531 423.210938 723.167969 423.539062 C 723.941406 423.871094 724.699219 424.238281 725.4375 424.640625 C 726.171875 425.046875 726.886719 425.484375 727.582031 425.960938 C 728.277344 426.4375 728.945312 426.945312 729.585938 427.488281 C 730.230469 428.03125 730.84375 428.601562 731.429688 429.207031 C 732.015625 429.808594 732.570312 430.441406 733.09375 431.097656 C 733.617188 431.757812 734.105469 432.441406 734.5625 433.148438 C 735.015625 433.855469 735.433594 434.582031 735.816406 435.332031 C 736.199219 436.082031 736.542969 436.847656 736.851562 437.628906 C 737.15625 438.414062 737.421875 439.210938 737.648438 440.019531 C 737.878906 440.828125 738.0625 441.648438 738.207031 442.476562 C 738.355469 443.304688 738.457031 444.140625 738.519531 444.976562 C 738.582031 445.816406 738.601562 446.65625 738.582031 447.496094 C 738.558594 448.335938 738.496094 449.175781 738.390625 450.011719 C 738.289062 450.84375 738.140625 451.671875 737.953125 452.492188 C 737.765625 453.3125 737.539062 454.121094 737.273438 454.917969 C 737.003906 455.714844 736.699219 456.496094 736.351562 457.261719 C 736.007812 458.03125 735.625 458.777344 735.203125 459.507812 C 734.785156 460.234375 734.328125 460.941406 733.839844 461.625 C 733.347656 462.308594 732.824219 462.964844 732.269531 463.597656 C 731.714844 464.226562 731.128906 464.828125 730.511719 465.402344 C 729.898438 465.976562 729.253906 466.515625 728.585938 467.023438 C 727.914062 467.535156 727.222656 468.007812 726.503906 468.449219 C 725.789062 468.886719 725.050781 469.289062 724.292969 469.65625 C 723.535156 470.023438 722.765625 470.351562 721.972656 470.640625 C 721.183594 470.929688 720.382812 471.179688 719.566406 471.390625 C 718.753906 471.597656 717.929688 471.769531 717.097656 471.894531 C 716.269531 472.023438 715.433594 472.109375 714.59375 472.152344 C 713.753906 472.199219 712.914062 472.199219 712.074219 472.160156 Z M 712.074219 472.160156 " fill-opacity="1" fill-rule="nonzero"/><path fill="#ffffff" d="M 933.449219 383.449219 C 849.328125 385.59375 847.492188 508.265625 932.558594 510.242188 C 1016.125 508.863281 1016.171875 386.171875 933.449219 383.449219 Z M 931.953125 472.160156 C 931.128906 472.140625 930.304688 472.078125 929.488281 471.976562 C 928.667969 471.875 927.855469 471.734375 927.050781 471.554688 C 926.246094 471.371094 925.449219 471.152344 924.667969 470.894531 C 923.882812 470.632812 923.113281 470.339844 922.359375 470.003906 C 921.605469 469.671875 920.867188 469.300781 920.148438 468.894531 C 919.433594 468.488281 918.734375 468.050781 918.058594 467.574219 C 917.382812 467.101562 916.734375 466.59375 916.105469 466.058594 C 915.480469 465.519531 914.882812 464.953125 914.3125 464.355469 C 913.742188 463.761719 913.199219 463.136719 912.691406 462.488281 C 912.179688 461.839844 911.703125 461.167969 911.261719 460.472656 C 910.816406 459.777344 910.40625 459.0625 910.03125 458.328125 C 909.660156 457.589844 909.320312 456.839844 909.019531 456.070312 C 908.71875 455.300781 908.457031 454.519531 908.234375 453.726562 C 908.007812 452.933594 907.824219 452.128906 907.679688 451.316406 C 907.53125 450.503906 907.425781 449.6875 907.363281 448.863281 C 907.296875 448.042969 907.269531 447.21875 907.285156 446.394531 C 907.300781 445.566406 907.355469 444.746094 907.449219 443.925781 C 907.542969 443.105469 907.679688 442.292969 907.855469 441.488281 C 908.027344 440.679688 908.242188 439.882812 908.496094 439.097656 C 908.746094 438.3125 909.035156 437.542969 909.363281 436.785156 C 909.691406 436.027344 910.054688 435.289062 910.457031 434.566406 C 910.855469 433.84375 911.292969 433.144531 911.757812 432.464844 C 912.226562 431.785156 912.730469 431.128906 913.261719 430.5 C 913.792969 429.871094 914.355469 429.265625 914.949219 428.691406 C 915.539062 428.117188 916.15625 427.570312 916.800781 427.054688 C 917.445312 426.539062 918.117188 426.058594 918.808594 425.609375 C 919.5 425.160156 920.210938 424.746094 920.945312 424.363281 C 921.675781 423.984375 922.425781 423.640625 923.191406 423.335938 C 923.957031 423.027344 924.738281 422.757812 925.53125 422.527344 C 926.320312 422.296875 927.125 422.105469 927.933594 421.953125 C 928.746094 421.800781 929.5625 421.691406 930.382812 421.617188 C 931.207031 421.542969 932.03125 421.511719 932.855469 421.519531 C 933.679688 421.542969 934.5 421.601562 935.320312 421.707031 C 936.140625 421.808594 936.953125 421.949219 937.757812 422.128906 C 938.5625 422.308594 939.355469 422.53125 940.140625 422.789062 C 940.921875 423.046875 941.691406 423.34375 942.445312 423.675781 C 943.203125 424.011719 943.9375 424.382812 944.65625 424.785156 C 945.375 425.191406 946.074219 425.632812 946.746094 426.105469 C 947.421875 426.582031 948.074219 427.085938 948.699219 427.625 C 949.328125 428.160156 949.925781 428.730469 950.496094 429.324219 C 951.066406 429.921875 951.605469 430.542969 952.117188 431.191406 C 952.625 431.839844 953.101562 432.511719 953.546875 433.207031 C 953.992188 433.90625 954.398438 434.621094 954.773438 435.355469 C 955.148438 436.089844 955.484375 436.84375 955.785156 437.613281 C 956.085938 438.378906 956.347656 439.160156 956.574219 439.957031 C 956.796875 440.75 956.984375 441.554688 957.128906 442.363281 C 957.273438 443.175781 957.378906 443.996094 957.445312 444.816406 C 957.511719 445.640625 957.535156 446.464844 957.523438 447.289062 C 957.507812 448.113281 957.453125 448.9375 957.359375 449.753906 C 957.261719 450.574219 957.128906 451.390625 956.953125 452.195312 C 956.777344 453 956.566406 453.796875 956.3125 454.582031 C 956.058594 455.371094 955.769531 456.140625 955.441406 456.898438 C 955.113281 457.65625 954.75 458.394531 954.351562 459.117188 C 953.949219 459.839844 953.515625 460.539062 953.046875 461.21875 C 952.578125 461.898438 952.078125 462.550781 951.546875 463.183594 C 951.011719 463.8125 950.449219 464.414062 949.859375 464.992188 C 949.269531 465.566406 948.648438 466.113281 948.003906 466.625 C 947.359375 467.140625 946.691406 467.625 946 468.074219 C 945.308594 468.523438 944.597656 468.9375 943.863281 469.316406 C 943.128906 469.699219 942.382812 470.039062 941.613281 470.347656 C 940.847656 470.65625 940.070312 470.921875 939.277344 471.152344 C 938.484375 471.382812 937.683594 471.574219 936.871094 471.726562 C 936.0625 471.878906 935.246094 471.992188 934.421875 472.066406 C 933.601562 472.136719 932.777344 472.167969 931.953125 472.160156 Z M 931.953125 472.160156 " fill-opacity="1" fill-rule="nonzero"/><path fill="#ffffff" d="M 822.015625 401.15625 C 824.09375 401.148438 826.160156 401.042969 828.226562 400.835938 C 830.292969 400.628906 832.339844 400.320312 834.375 399.914062 C 836.410156 399.507812 838.421875 399.003906 840.40625 398.402344 C 842.390625 397.796875 844.34375 397.101562 846.261719 396.308594 C 848.179688 395.515625 850.054688 394.632812 851.886719 393.660156 C 853.71875 392.683594 855.496094 391.621094 857.226562 390.476562 C 858.953125 389.328125 860.625 388.097656 862.234375 386.789062 C 863.839844 385.476562 865.382812 384.09375 866.855469 382.632812 C 868.332031 381.171875 869.730469 379.644531 871.058594 378.046875 C 872.382812 376.449219 873.628906 374.792969 874.792969 373.078125 C 875.957031 371.359375 877.035156 369.589844 878.027344 367.765625 C 879.019531 365.945312 879.917969 364.078125 880.730469 362.167969 C 881.539062 360.257812 882.257812 358.3125 882.878906 356.332031 C 883.5 354.351562 884.023438 352.347656 884.449219 350.316406 C 884.875 348.285156 885.203125 346.238281 885.429688 344.175781 C 885.65625 342.113281 885.78125 340.046875 885.808594 337.972656 C 885.832031 335.898438 885.757812 333.824219 885.582031 331.757812 C 885.40625 329.691406 885.132812 327.636719 884.757812 325.59375 C 884.378906 323.554688 883.90625 321.539062 883.335938 319.542969 C 882.761719 317.546875 882.09375 315.585938 881.332031 313.65625 C 880.570312 311.726562 879.714844 309.839844 878.769531 307.992188 C 877.820312 306.144531 876.789062 304.347656 875.667969 302.601562 C 874.546875 300.859375 873.34375 299.171875 872.054688 297.542969 C 870.769531 295.914062 869.410156 294.351562 867.972656 292.855469 C 866.535156 291.355469 865.027344 289.933594 863.453125 288.585938 C 861.875 287.234375 860.238281 285.964844 858.539062 284.773438 C 856.839844 283.585938 855.085938 282.480469 853.277344 281.460938 C 851.472656 280.4375 849.617188 279.507812 847.722656 278.671875 C 845.824219 277.832031 843.890625 277.085938 841.921875 276.433594 C 839.949219 275.78125 837.953125 275.226562 835.929688 274.769531 C 833.90625 274.3125 831.863281 273.957031 829.804688 273.699219 C 827.746094 273.4375 825.679688 273.28125 823.605469 273.222656 C 821.53125 273.230469 819.460938 273.335938 817.394531 273.542969 C 815.332031 273.75 813.28125 274.058594 811.246094 274.464844 C 809.210938 274.871094 807.203125 275.375 805.214844 275.976562 C 803.230469 276.582031 801.277344 277.277344 799.359375 278.070312 C 797.441406 278.863281 795.570312 279.746094 793.738281 280.71875 C 791.90625 281.695312 790.125 282.757812 788.394531 283.902344 C 786.667969 285.050781 785 286.28125 783.390625 287.589844 C 781.78125 288.902344 780.238281 290.285156 778.765625 291.746094 C 777.289062 293.207031 775.890625 294.734375 774.566406 296.332031 C 773.238281 297.925781 771.996094 299.585938 770.832031 301.300781 C 769.667969 303.019531 768.589844 304.789062 767.597656 306.613281 C 766.605469 308.433594 765.703125 310.300781 764.890625 312.210938 C 764.082031 314.121094 763.367188 316.066406 762.746094 318.046875 C 762.121094 320.027344 761.597656 322.03125 761.171875 324.0625 C 760.746094 326.09375 760.421875 328.140625 760.191406 330.203125 C 759.964844 332.265625 759.839844 334.332031 759.8125 336.40625 C 759.789062 338.480469 759.863281 340.554688 760.039062 342.621094 C 760.214844 344.6875 760.492188 346.742188 760.867188 348.78125 C 761.242188 350.824219 761.714844 352.839844 762.289062 354.835938 C 762.859375 356.832031 763.527344 358.792969 764.289062 360.722656 C 765.050781 362.652344 765.90625 364.539062 766.855469 366.386719 C 767.800781 368.234375 768.835938 370.03125 769.957031 371.773438 C 771.078125 373.519531 772.28125 375.207031 773.566406 376.835938 C 774.851562 378.464844 776.210938 380.027344 777.648438 381.523438 C 779.089844 383.019531 780.59375 384.445312 782.171875 385.792969 C 783.746094 387.144531 785.382812 388.414062 787.082031 389.605469 C 788.785156 390.792969 790.535156 391.898438 792.34375 392.917969 C 794.152344 393.9375 796.003906 394.867188 797.902344 395.707031 C 799.796875 396.546875 801.730469 397.292969 803.703125 397.945312 C 805.671875 398.597656 807.667969 399.152344 809.691406 399.609375 C 811.71875 400.066406 813.757812 400.421875 815.816406 400.679688 C 817.875 400.9375 819.941406 401.097656 822.015625 401.15625 Z M 805.007812 318.917969 C 805.90625 318.058594 806.867188 317.269531 807.882812 316.546875 C 808.898438 315.828125 809.960938 315.183594 811.070312 314.617188 C 812.179688 314.050781 813.324219 313.566406 814.503906 313.167969 C 815.6875 312.765625 816.886719 312.453125 818.113281 312.230469 C 819.339844 312.003906 820.574219 311.871094 821.820312 311.824219 C 823.066406 311.78125 824.304688 311.824219 825.546875 311.960938 C 826.785156 312.097656 828.003906 312.320312 829.210938 312.636719 C 830.417969 312.949219 831.59375 313.347656 832.742188 313.832031 C 833.890625 314.316406 834.996094 314.882812 836.0625 315.527344 C 837.128906 316.175781 838.140625 316.894531 839.101562 317.6875 C 840.0625 318.480469 840.960938 319.339844 841.796875 320.261719 C 842.632812 321.1875 843.394531 322.164062 844.089844 323.199219 C 844.78125 324.234375 845.398438 325.316406 845.933594 326.441406 C 846.46875 327.566406 846.921875 328.722656 847.289062 329.914062 C 847.65625 331.101562 847.9375 332.3125 848.128906 333.546875 C 848.320312 334.777344 848.421875 336.015625 848.433594 337.261719 C 848.402344 338.097656 848.328125 338.929688 848.21875 339.757812 C 848.109375 340.585938 847.960938 341.40625 847.773438 342.222656 C 847.585938 343.039062 847.359375 343.84375 847.097656 344.636719 C 846.835938 345.429688 846.539062 346.210938 846.203125 346.976562 C 845.867188 347.742188 845.496094 348.492188 845.09375 349.222656 C 844.6875 349.957031 844.25 350.667969 843.777344 351.359375 C 843.308594 352.050781 842.804688 352.71875 842.273438 353.359375 C 841.738281 354.003906 841.175781 354.621094 840.585938 355.214844 C 839.996094 355.804688 839.378906 356.367188 838.734375 356.902344 C 838.089844 357.4375 837.421875 357.941406 836.734375 358.410156 C 836.042969 358.882812 835.332031 359.324219 834.601562 359.726562 C 833.867188 360.132812 833.121094 360.503906 832.355469 360.839844 C 831.589844 361.175781 830.808594 361.476562 830.015625 361.738281 C 829.21875 362 828.417969 362.226562 827.601562 362.414062 C 826.785156 362.601562 825.964844 362.753906 825.136719 362.863281 C 824.308594 362.976562 823.476562 363.046875 822.640625 363.082031 C 821.378906 363.050781 820.128906 362.933594 818.886719 362.71875 C 817.644531 362.507812 816.425781 362.207031 815.226562 361.816406 C 814.027344 361.425781 812.867188 360.949219 811.738281 360.390625 C 810.609375 359.832031 809.527344 359.191406 808.492188 358.472656 C 807.457031 357.753906 806.480469 356.964844 805.5625 356.101562 C 804.640625 355.242188 803.789062 354.316406 803.003906 353.332031 C 802.222656 352.34375 801.511719 351.304688 800.878906 350.214844 C 800.246094 349.125 799.699219 347.996094 799.230469 346.828125 C 798.761719 345.65625 798.382812 344.457031 798.09375 343.234375 C 797.800781 342.007812 797.597656 340.765625 797.488281 339.511719 C 797.378906 338.257812 797.359375 337 797.433594 335.742188 C 797.503906 334.484375 797.667969 333.238281 797.925781 332.003906 C 798.179688 330.769531 798.523438 329.5625 798.957031 328.378906 C 799.386719 327.195312 799.902344 326.050781 800.503906 324.941406 C 801.101562 323.832031 801.78125 322.773438 802.535156 321.765625 C 803.289062 320.757812 804.113281 319.808594 805.007812 318.917969 Z M 805.007812 318.917969 " fill-opacity="1" fill-rule="nonzero"/><path fill="#ffffff" d="M 1117.496094 785.300781 C 1146.902344 675.574219 1132.261719 579.042969 1101 446.058594 C 1069.871094 311.933594 981.871094 126.695312 807.664062 161.964844 C 723.863281 174.503906 624.167969 218.980469 544.117188 196.136719 C 498.371094 184.597656 452.265625 175.011719 406.835938 165.15625 C 147.414062 108.441406 77.277344 458.175781 66.78125 668.4375 C 60.292969 809.183594 132.015625 925.789062 283.351562 844.117188 C 306.214844 831.269531 328.175781 817.03125 349.242188 801.410156 C 370.304688 785.785156 390.300781 768.898438 409.234375 750.75 C 415.347656 744.707031 421.8125 739.0625 428.625 733.820312 C 435.4375 728.578125 442.546875 723.773438 449.953125 719.40625 C 457.359375 715.042969 465.007812 711.152344 472.894531 707.734375 C 480.785156 704.316406 488.851562 701.394531 497.101562 698.972656 C 596.824219 673.902344 713.898438 676.808594 795.5625 754.792969 C 872.089844 831.960938 1056.664062 954.648438 1117.496094 785.300781 Z M 973.9375 826.953125 C 858.875 792.351562 798.769531 669.832031 682.207031 654.84375 C 576.382812 638.191406 466.324219 644.230469 383.394531 722.789062 C 365.644531 739.832031 346.902344 755.695312 327.15625 770.378906 C 307.414062 785.0625 286.828125 798.453125 265.398438 810.546875 C 0.453125 946.34375 130.429688 406.605469 184 322.753906 C 274.136719 148.546875 374.574219 196.292969 534.738281 233.042969 C 588.355469 249.089844 660.070312 237.082031 721.257812 220.027344 C 819.304688 193.328125 914.230469 172.128906 982.824219 269.054688 C 1069.582031 361.351562 1190.222656 891.78125 973.9375 826.953125 Z M 973.9375 826.953125 " fill-opacity="1" fill-rule="nonzero"/><g clip-path="url(#27cece2149)"><g clip-path="url(#690833f6de)"><path fill="#0e0132" d="M 223.988281 257.714844 L 1002.09375 257.714844 L 1002.09375 638.585938 L 223.988281 638.585938 Z M 223.988281 257.714844 " fill-opacity="1" fill-rule="nonzero"/></g></g><g clip-path="url(#e2ead079cf)"><g clip-path="url(#97234aade1)"><path fill="#0e0132" d="M 306.75 40.292969 L 888.925781 40.292969 L 888.925781 346.957031 L 306.75 346.957031 Z M 306.75 40.292969 " fill-opacity="1" fill-rule="nonzero"/></g></g><path fill="#ffffff" d="M 1029.238281 188.175781 C 1019.089844 178.371094 1003.3125 165.277344 985.164062 167.117188 C 984.425781 163.84375 994.328125 163.203125 996.308594 161.671875 C 1002.1875 159.589844 1007.308594 156.160156 1012.644531 153.027344 C 1034.550781 136.097656 1043.535156 107.53125 1045.042969 80.875 C 1043.917969 57.628906 1058.707031 138.234375 1085.894531 149.832031 C 1093.175781 154.605469 1101.117188 157.980469 1109.019531 161.242188 C 1117.292969 163.480469 1125.242188 164.53125 1110.675781 166.203125 C 1073.835938 175.824219 1055.425781 209.644531 1052.613281 248.0625 C 1049.613281 257.683594 1048.210938 224.542969 1045.890625 220.386719 C 1042.109375 208.40625 1036.980469 196.921875 1029.238281 188.175781 Z M 1029.238281 188.175781 " fill-opacity="1" fill-rule="nonzero"/><g clip-path="url(#88910eb940)"><path fill="#ffffff" d="M 974.425781 132.214844 C 969.359375 127.5 970.691406 114.140625 963.304688 108.792969 C 961.085938 106.414062 953.734375 105.558594 953.492188 102.714844 C 972.933594 98.25 971.585938 65.714844 974.984375 82.335938 C 976.820312 92.199219 985.351562 98.628906 994.238281 102.21875 C 1008.152344 106.902344 977.464844 101.386719 974.425781 132.214844 Z M 974.425781 132.214844 " fill-opacity="1" fill-rule="nonzero"/></g><path fill="#ffffff" d="M 1004.289062 74.25 C 1002.230469 53.363281 984.667969 61.128906 999.09375 52.148438 C 1004.441406 46.769531 1002.492188 40.292969 1004.945312 42.023438 C 1005.523438 49.953125 1012.402344 54.449219 1019.097656 57.09375 C 1011.742188 58.882812 1006.339844 66.867188 1004.289062 74.25 Z M 1004.289062 74.25 " fill-opacity="1" fill-rule="nonzero"/><path fill="#ffffff" d="M 1108.847656 230.097656 C 1107.21875 223.117188 1105.34375 215.164062 1097.425781 213.160156 C 1096.636719 212.890625 1096.8125 212.191406 1097.558594 211.957031 C 1105.289062 211.003906 1106.101562 199.871094 1109.414062 197.558594 C 1109.246094 206.515625 1119.191406 209.863281 1123.570312 213.730469 C 1114.449219 213.945312 1111.53125 224.121094 1108.847656 230.097656 Z M 1108.847656 230.097656 " fill-opacity="1" fill-rule="nonzero"/><path fill="#ffffff" d="M 127.964844 765.523438 C 117.8125 755.71875 102.035156 742.625 83.890625 744.464844 C 83.152344 741.191406 93.054688 740.550781 95.03125 739.019531 C 100.910156 736.9375 106.03125 733.507812 111.371094 730.375 C 133.277344 713.445312 142.261719 684.878906 143.769531 658.222656 C 142.644531 634.976562 157.429688 715.582031 184.621094 727.179688 C 191.898438 731.953125 199.839844 735.328125 207.742188 738.585938 C 216.015625 740.828125 223.96875 741.878906 209.402344 743.550781 C 172.558594 753.171875 154.152344 786.992188 151.335938 825.410156 C 148.339844 835.03125 146.9375 801.890625 144.617188 797.734375 C 140.835938 785.753906 135.703125 774.269531 127.964844 765.523438 Z M 127.964844 765.523438 " fill-opacity="1" fill-rule="nonzero"/><g clip-path="url(#3e2131f9d4)"><path fill="#ffffff" d="M 73.152344 709.5625 C 68.082031 704.847656 69.417969 691.488281 62.03125 686.140625 C 59.808594 683.761719 52.460938 682.90625 52.21875 680.0625 C 71.660156 675.597656 70.3125 643.0625 73.707031 659.683594 C 75.546875 669.546875 84.074219 675.972656 92.960938 679.5625 C 106.878906 684.25 76.191406 678.734375 73.152344 709.5625 Z M 73.152344 709.5625 " fill-opacity="1" fill-rule="nonzero"/></g><path fill="#ffffff" d="M 103.011719 651.59375 C 100.957031 630.710938 83.390625 638.476562 97.820312 629.496094 C 103.167969 624.117188 101.21875 617.640625 103.667969 619.371094 C 104.246094 627.300781 111.128906 631.796875 117.820312 634.441406 C 110.46875 636.230469 105.066406 644.214844 103.011719 651.59375 Z M 103.011719 651.59375 " fill-opacity="1" fill-rule="nonzero"/><path fill="#ffffff" d="M 207.574219 807.445312 C 205.945312 800.464844 204.070312 792.511719 196.152344 790.507812 C 195.363281 790.238281 195.539062 789.539062 196.28125 789.304688 C 204.015625 788.351562 204.828125 777.21875 208.140625 774.90625 C 207.96875 783.863281 217.917969 787.210938 222.292969 791.078125 C 213.175781 791.292969 210.253906 801.46875 207.574219 807.445312 Z M 207.574219 807.445312 " fill-opacity="1" fill-rule="nonzero"/><g clip-path="url(#dc030f9652)"><path stroke-linecap="butt" transform="matrix(-0.595387, 0.455308, -0.455308, -0.595387, 636.47794, 84.210165)" fill="none" stroke-linejoin="miter" d="M 0.000356535 39.501882 L 724.884351 39.500081 " stroke="#ffffff" stroke-width="79" stroke-opacity="1" stroke-miterlimit="4"/></g><g clip-path="url(#0914ff6926)"><path stroke-linecap="butt" transform="matrix(-0.579742, -0.47507, 0.47507, -0.579742, 983.339897, 427.344069)" fill="none" stroke-linejoin="miter" d="M -0.00122523 39.49919 L 724.883873 39.499673 " stroke="#ffffff" stroke-width="79" stroke-opacity="1" stroke-miterlimit="4"/></g><g clip-path="url(#c5a5d1f5c5)"><path stroke-linecap="butt" transform="matrix(-0.595387, 0.455308, -0.455308, -0.595387, 636.47794, 240.519806)" fill="none" stroke-linejoin="miter" d="M 0.00267339 39.498852 L 724.886668 39.497051 " stroke="#ffffff" stroke-width="79" stroke-opacity="1" stroke-miterlimit="4"/></g><g clip-path="url(#7f1476d58c)"><path stroke-linecap="butt" transform="matrix(-0.579742, -0.47507, 0.47507, -0.579742, 983.339897, 583.653761)" fill="none" stroke-linejoin="miter" d="M -0.000296796 39.500323 L 724.884802 39.500806 " stroke="#ffffff" stroke-width="79" stroke-opacity="1" stroke-miterlimit="4"/></g><g clip-path="url(#365957eca5)"><path stroke-linecap="butt" transform="matrix(-0.595387, 0.455308, -0.455308, -0.595387, 636.47794, 384.714468)" fill="none" stroke-linejoin="miter" d="M 0.000034676 39.502303 L 724.884029 39.500501 " stroke="#ffffff" stroke-width="79" stroke-opacity="1" stroke-miterlimit="4"/></g><g clip-path="url(#e44c3883aa)"><path stroke-linecap="butt" transform="matrix(-0.579742, -0.47507, 0.47507, -0.579742, 983.339897, 727.848351)" fill="none" stroke-linejoin="miter" d="M -0.000907653 39.499578 L 724.884191 39.50006 " stroke="#ffffff" stroke-width="79" stroke-opacity="1" stroke-miterlimit="4"/></g></svg>